<?xml version="1.0" standalone="no"?>
<!DOCTYPE svg PUBLIC "-//W3C//DTD SVG 20010904//EN"
 "http://www.w3.org/TR/2001/REC-SVG-20010904/DTD/svg10.dtd">
<svg version="1.0" xmlns="http://www.w3.org/2000/svg"
 width="125.000000pt" height="125.000000pt" viewBox="0 0 125.000000 125.000000"
 preserveAspectRatio="xMidYMid meet">
<metadata>
Created by potrace 1.14, written by Peter Selinger 2001-2017
</metadata>
<g transform="translate(0.000000,125.000000) scale(0.100000,-0.100000)"
fill="#000000" stroke="none">
<path d="M220 1233 c-84 -30 -146 -84 -188 -165 l-27 -53 0 -390 0 -390 34
-63 c36 -66 75 -103 151 -143 l45 -24 390 0 390 0 50 26 c70 38 119 85 152
149 l28 55 0 390 0 390 -26 50 c-38 70 -85 119 -149 152 l-55 28 -375 2 c-321
2 -381 0 -420 -14z"/>
</g>
</svg>
