<?xml version="1.0" standalone="no"?>
<!DOCTYPE svg PUBLIC "-//W3C//DTD SVG 20010904//EN"
 "http://www.w3.org/TR/2001/REC-SVG-20010904/DTD/svg10.dtd">
<svg version="1.0" xmlns="http://www.w3.org/2000/svg"
 width="1140.000000pt" height="1140.000000pt" viewBox="0 0 1140.000000 1140.000000"
 preserveAspectRatio="xMidYMid meet">
<metadata>
Created by potrace 1.14, written by Peter Selinger 2001-2017
</metadata>
<g transform="translate(0.000000,1140.000000) scale(0.100000,-0.100000)"
fill="#000000" stroke="none">
<path d="M1748 11389 c-2 -7 -42 -18 -88 -25 -157 -24 -373 -91 -482 -150 -14
-8 -31 -14 -38 -14 -24 0 -236 -130 -364 -224 -50 -37 -307 -289 -336 -331
-142 -200 -280 -437 -280 -482 0 -9 -6 -24 -13 -32 -17 -20 -45 -100 -59 -166
-6 -27 -16 -66 -24 -85 -7 -19 -18 -72 -24 -118 -12 -92 -18 -112 -31 -112
-14 0 -12 -7897 2 -7902 7 -2 18 -42 25 -88 24 -157 91 -373 150 -482 8 -14
14 -31 14 -38 0 -24 130 -236 224 -364 37 -50 289 -307 331 -336 200 -142 437
-280 482 -280 9 0 24 -6 32 -13 20 -17 100 -45 166 -59 28 -6 66 -16 85 -24
19 -7 72 -18 118 -24 92 -12 112 -18 112 -31 0 -14 7897 -12 7902 2 2 7 42 18
88 25 157 24 373 91 482 150 14 8 31 14 38 14 24 0 236 130 364 224 50 37 307
289 336 331 142 200 280 437 280 482 0 9 6 24 13 32 17 20 45 100 59 166 6 28
16 66 24 85 7 19 18 72 24 118 12 92 18 112 31 112 14 0 12 7897 -2 7902 -7 2
-18 42 -25 88 -24 157 -91 373 -150 482 -8 14 -14 31 -14 38 0 24 -130 236
-224 364 -37 50 -289 307 -331 336 -200 142 -437 280 -482 280 -9 0 -24 6 -32
13 -20 17 -100 45 -166 59 -27 6 -66 16 -85 24 -19 7 -72 18 -118 24 -92 12
-112 18 -112 31 0 14 -7897 12 -7902 -2z m1957 -3570 c221 -20 425 -79 580
-169 22 -13 49 -28 60 -34 47 -26 140 -102 206 -169 204 -206 313 -490 313
-817 -1 -378 -139 -633 -443 -817 -29 -18 -55 -33 -58 -33 -2 0 -32 -13 -66
-29 -34 -16 -83 -37 -109 -46 -26 -10 -53 -23 -59 -31 -15 -18 19 -34 74 -34
48 0 106 -20 237 -83 112 -54 184 -103 262 -180 228 -224 338 -502 338 -852 0
-348 -108 -619 -329 -828 -109 -102 -279 -209 -411 -256 -19 -7 -44 -16 -55
-21 -21 -8 -66 -21 -130 -38 -22 -6 -74 -16 -115 -22 -41 -7 -95 -16 -120 -22
-66 -15 -1931 -23 -1959 -9 l-21 12 0 2232 c0 1228 4 2237 8 2244 5 8 51 14
142 16 261 7 1536 -4 1655 -14z m2763 8 c9 -7 12 -216 12 -996 0 -754 3 -990
12 -999 9 -9 288 -12 1194 -12 651 0 1185 4 1188 8 3 5 6 450 6 990 1 735 4
984 13 996 10 13 48 16 266 17 139 0 257 -3 262 -8 10 -10 13 -4482 3 -4492
-3 -3 -121 -7 -262 -9 -235 -3 -257 -2 -269 14 -10 14 -13 217 -13 1006 0 543
-3 988 -7 988 -178 4 -2376 0 -2383 -5 -7 -4 -10 -327 -10 -995 0 -968 0 -990
-19 -1000 -25 -13 -507 -14 -516 -1 -9 15 -6 4484 3 4493 13 13 499 18 520 5z"/>
<path d="M2456 7343 c-3 -4 -6 -338 -6 -744 l0 -737 64 -7 c36 -4 298 -5 583
-2 433 4 530 7 591 21 232 52 411 171 531 351 92 138 127 271 118 450 -10 185
-67 322 -187 445 -114 116 -258 182 -459 210 -83 11 -1225 23 -1235 13z"/>
<path d="M2450 4591 l0 -781 23 -1 c12 -1 299 0 637 1 559 1 626 3 730 21 226
39 358 97 470 209 128 127 195 269 207 442 10 143 -16 256 -93 413 -101 207
-295 361 -554 442 l-85 26 -667 4 -668 4 0 -780z"/>
</g>
</svg>
