<?xml version="1.0" standalone="no"?>
<!DOCTYPE svg PUBLIC "-//W3C//DTD SVG 20010904//EN"
 "http://www.w3.org/TR/2001/REC-SVG-20010904/DTD/svg10.dtd">
<svg version="1.0" xmlns="http://www.w3.org/2000/svg"
 width="750.000000pt" height="750.000000pt" viewBox="0 0 750.000000 750.000000"
 preserveAspectRatio="xMidYMid meet">
<metadata>
Created by potrace 1.14, written by Peter Selinger 2001-2017
</metadata>
<g transform="translate(0.000000,750.000000) scale(0.100000,-0.100000)"
fill="#000000" stroke="none">
<path d="M1550 7480 c-8 -16 -8 -18 5 -14 8 3 12 11 8 17 -3 6 -1 7 6 3 6 -4
8 -12 5 -18 -4 -6 -1 -8 7 -6 8 3 13 11 11 17 -1 7 2 10 8 6 8 -5 8 -11 1 -19
-6 -7 -7 -16 -3 -21 4 -4 -3 -3 -15 4 -28 14 -36 14 -27 -1 4 -7 -2 -5 -13 5
-22 19 -33 22 -33 6 0 -5 5 -7 12 -3 6 4 8 3 5 -4 -4 -5 -17 -8 -29 -4 -13 3
-19 1 -15 -5 3 -5 -1 -10 -9 -10 -9 0 -13 6 -9 15 4 12 3 13 -10 2 -8 -7 -12
-16 -9 -21 3 -5 -3 -6 -12 -2 -13 5 -15 3 -9 -7 5 -9 4 -11 -4 -6 -9 6 -9 11
0 22 10 12 8 14 -9 11 -12 -2 -25 -7 -29 -12 -5 -4 -2 -5 6 0 10 6 12 4 7 -4
-5 -7 -15 -10 -23 -7 -8 3 -11 1 -8 -4 3 -6 1 -10 -5 -10 -6 0 -9 -4 -6 -8 2
-4 -7 -8 -22 -9 -26 -2 -27 -2 -4 9 12 6 22 16 22 22 0 6 -5 5 -12 -2 -19 -19
-32 -14 -17 6 13 16 12 16 -7 -1 -14 -12 -20 -26 -17 -45 3 -25 3 -26 -6 -4
-11 24 -27 31 -18 8 4 -9 0 -13 -11 -11 -9 2 -17 4 -17 5 0 1 -12 3 -27 4 -15
2 -25 -1 -22 -5 2 -4 13 -6 24 -4 12 2 18 0 15 -6 -4 -5 -10 -7 -14 -5 -12 8
-52 -24 -45 -35 3 -5 10 -6 16 -3 7 4 8 2 4 -4 -8 -13 -46 5 -46 21 0 4 4 6 9
3 5 -3 14 1 20 8 9 10 9 16 1 21 -6 4 -9 1 -8 -6 2 -7 -3 -13 -10 -14 -7 0
-16 -4 -20 -10 -8 -12 -30 -18 -57 -17 -12 1 -15 -2 -8 -6 8 -5 9 -13 3 -22
-7 -10 -10 -11 -10 -2 0 6 -5 12 -11 12 -5 0 -8 -4 -5 -9 6 -8 -23 -22 -54
-25 -8 0 -14 -7 -12 -13 1 -7 -5 -13 -14 -13 -9 0 -12 5 -8 13 5 8 2 8 -9 -2
-9 -7 -17 -22 -17 -33 0 -10 -4 -17 -10 -13 -5 3 -7 13 -4 23 2 9 -1 7 -8 -6
-9 -19 -9 -25 3 -34 12 -8 12 -9 -1 -5 -8 2 -25 0 -37 -4 -17 -6 -21 -5 -16 6
3 8 0 15 -6 15 -6 0 -10 -6 -9 -12 2 -7 -3 -12 -9 -10 -7 1 -13 -3 -13 -9 0
-6 6 -9 13 -6 6 2 21 0 32 -5 18 -8 18 -8 -3 -4 -25 5 -56 -20 -46 -36 4 -7 2
-8 -5 -4 -6 4 -9 10 -7 14 2 4 -6 7 -18 7 -18 0 -22 -5 -20 -23 1 -12 -2 -20
-7 -16 -5 3 -7 9 -4 14 3 5 2 11 -3 14 -13 8 -11 -27 2 -43 9 -12 7 -12 -13
-2 -22 12 -23 12 -18 -8 4 -18 2 -19 -14 -10 -15 7 -19 6 -19 -6 0 -8 -5 -15
-11 -15 -5 0 -8 -3 -5 -8 2 -4 -3 -16 -11 -27 -13 -16 -15 -17 -10 -2 9 24 -5
21 -36 -7 -15 -14 -22 -28 -17 -31 6 -3 10 -12 9 -18 0 -9 -2 -9 -6 1 -6 15
-39 16 -48 2 -4 -6 -11 -8 -16 -5 -14 9 -11 -2 7 -19 9 -9 11 -16 4 -16 -6 0
-8 -5 -4 -12 4 -7 3 -8 -5 -4 -6 4 -9 11 -6 16 3 5 2 11 -3 14 -4 2 -9 -9 -10
-25 -2 -21 1 -28 9 -23 7 4 9 3 5 -4 -3 -6 -23 -9 -44 -7 -30 3 -33 2 -14 -5
27 -11 29 -24 2 -17 -10 3 -19 2 -18 -2 2 -16 -3 -31 -10 -30 -4 1 -14 1 -22
0 -13 -1 -13 -2 0 -11 8 -5 24 -7 35 -4 11 3 1 -6 -23 -21 -23 -14 -40 -30
-37 -35 3 -5 0 -12 -6 -16 -7 -4 -9 -3 -6 3 4 6 -6 15 -21 22 -23 10 -25 9
-10 -2 9 -7 16 -23 15 -35 -1 -16 -4 -18 -14 -10 -10 8 -12 7 -8 -5 4 -8 1
-18 -6 -23 -7 -4 -10 -3 -5 4 3 6 2 14 -4 17 -6 4 -9 1 -8 -7 2 -7 -3 -12 -10
-10 -8 1 -11 -2 -7 -8 3 -6 11 -8 16 -5 5 4 9 1 9 -4 0 -6 -9 -11 -20 -11 -21
0 -27 -15 -10 -25 13 -8 13 -25 -1 -25 -5 0 -8 4 -5 9 6 10 -24 25 -32 16 -3
-3 -1 -5 5 -5 14 0 24 -38 12 -46 -5 -3 -8 0 -7 7 2 6 -4 14 -12 16 -13 4 -13
3 0 -6 8 -6 11 -11 5 -11 -5 0 1 -10 15 -21 22 -18 22 -19 3 -10 -17 9 -29 7
-53 -8 -23 -13 -27 -20 -16 -24 8 -3 20 3 28 15 13 20 14 20 28 2 14 -18 14
-18 -4 -4 -18 14 -19 13 -13 -3 4 -11 3 -16 -3 -12 -6 3 -10 1 -10 -4 0 -6 -9
-11 -19 -11 -11 0 -23 -5 -27 -11 -4 -8 1 -9 17 -5 23 7 23 6 5 -8 -10 -9 -22
-13 -26 -11 -4 3 -13 -2 -19 -9 -14 -16 3 -17 29 -2 8 5 12 6 8 1 -4 -4 0 -13
9 -20 13 -9 13 -14 3 -20 -8 -5 -11 -4 -7 2 13 21 -20 21 -51 1 -35 -22 -44
-35 -13 -19 14 8 20 7 24 -4 4 -10 1 -12 -10 -8 -10 4 -14 2 -10 -4 6 -10 -15
-36 -24 -30 -2 1 -1 -2 3 -7 4 -5 2 -17 -5 -25 -11 -14 -10 -14 5 -2 10 7 15
18 11 24 -4 6 -1 7 7 2 8 -5 11 -4 7 2 -3 5 0 10 8 10 10 0 9 -6 -5 -25 -11
-13 -18 -28 -15 -32 2 -4 -9 -6 -25 -4 -27 3 -30 1 -26 -21 3 -14 0 -27 -5
-31 -6 -4 -6 -11 2 -20 6 -8 8 -14 3 -14 -4 0 1 -7 12 -16 18 -15 18 -15 -3
-5 -30 15 -38 14 -24 -3 9 -11 9 -19 -1 -35 -7 -12 -17 -21 -22 -21 -5 0 -1 9
9 20 10 11 16 20 14 21 -2 0 -12 2 -22 4 -15 3 -16 1 -6 -11 9 -11 8 -15 -5
-20 -15 -6 -24 -27 -8 -22 4 2 8 -1 9 -6 1 -5 7 -13 15 -18 9 -6 6 -7 -9 -3
-12 3 -24 1 -28 -5 -4 -6 -1 -9 7 -8 7 2 12 -3 10 -9 -1 -7 4 -13 10 -13 7 0
5 -5 -5 -11 -11 -7 -16 -17 -12 -29 4 -11 0 -20 -11 -24 -9 -4 -14 -9 -11 -13
4 -3 2 -12 -5 -20 -8 -11 -7 -12 6 -7 10 4 15 13 12 21 -4 8 -1 11 5 8 6 -4 8
-13 5 -21 -3 -8 0 -14 7 -14 8 0 7 -3 -2 -9 -8 -5 -26 -7 -40 -6 -14 2 -20 2
-13 -1 6 -3 9 -11 5 -17 -10 -17 -14 -67 -5 -67 4 0 9 9 10 20 4 41 6 45 29
46 12 1 20 -2 17 -7 -3 -5 -12 -9 -20 -9 -8 0 -14 -5 -14 -11 0 -5 4 -8 9 -4
5 3 12 1 16 -4 3 -6 -4 -8 -16 -6 -15 3 -19 0 -15 -11 3 -8 -1 -17 -9 -20 -13
-6 -15 -256 -15 -2131 1 -1896 2 -2124 16 -2112 12 10 12 14 2 20 -8 5 -5 8 9
6 20 -1 21 -3 8 -17 -18 -20 -19 -31 -3 -27 6 1 13 -11 14 -28 2 -25 1 -27 -7
-12 -6 9 -14 15 -20 12 -5 -3 -6 1 -3 9 3 9 2 16 -4 16 -6 0 -9 -8 -7 -17 1
-10 8 -17 14 -16 6 2 11 -3 11 -10 0 -7 12 -20 27 -29 16 -10 22 -18 15 -18
-7 0 -10 -5 -6 -12 4 -7 3 -8 -5 -4 -6 4 -9 11 -6 16 3 5 0 12 -7 16 -7 4 -10
4 -6 -1 4 -4 2 -15 -5 -23 -6 -9 -7 -13 -2 -10 6 3 18 -3 29 -13 18 -17 17
-18 -5 -12 -14 2 -20 1 -14 -4 6 -4 12 -15 14 -23 2 -8 6 -24 9 -34 4 -14 2
-17 -8 -11 -9 5 -11 4 -6 -4 6 -9 11 -9 22 0 10 9 14 9 14 0 0 -6 -7 -14 -16
-18 -12 -4 -10 -9 12 -24 15 -10 31 -16 36 -13 4 3 8 0 8 -5 0 -13 -2 -13 -33
-2 -17 7 -24 6 -24 -4 0 -7 8 -10 17 -8 9 2 22 -3 30 -12 11 -13 10 -15 -3 -9
-14 5 -15 1 -7 -25 5 -17 6 -31 3 -31 -3 0 0 -6 6 -14 6 -8 11 -18 10 -22 -4
-25 3 -33 29 -29 20 2 29 -1 29 -11 0 -10 -4 -11 -13 -3 -8 7 -14 7 -19 -1 -3
-6 -11 -8 -16 -5 -5 4 -9 1 -9 -4 0 -14 13 -14 28 1 9 9 12 8 12 -6 0 -11 4
-15 12 -10 8 5 7 0 -2 -11 -9 -11 -10 -16 -2 -11 7 4 12 1 12 -9 0 -9 -4 -13
-10 -10 -5 3 -10 1 -10 -4 0 -15 13 -14 29 2 10 10 11 9 5 -6 -5 -14 -2 -16
12 -10 16 6 17 5 4 -9 -8 -9 -17 -14 -20 -13 -3 2 -7 -5 -7 -16 -2 -18 0 -18
17 3 14 17 19 19 20 8 0 -13 1 -13 11 0 9 13 10 13 6 0 -2 -8 -10 -14 -16 -13
-6 2 -11 -2 -11 -7 0 -6 4 -10 9 -10 5 0 12 -7 15 -16 5 -14 4 -15 -9 -4 -13
11 -14 10 -9 -4 4 -11 14 -16 25 -13 11 3 17 1 13 -4 -3 -5 -13 -10 -22 -10
-9 -1 -3 -4 13 -8 22 -5 29 -12 27 -25 -2 -12 1 -16 9 -10 9 5 10 2 6 -9 -6
-16 3 -22 26 -18 5 1 6 -3 3 -8 -4 -5 4 -17 16 -27 15 -11 17 -14 6 -11 -10 4
-18 2 -18 -3 0 -6 8 -10 18 -10 15 -1 15 -2 -3 -16 -11 -9 -13 -14 -5 -12 21
6 84 -47 75 -63 -4 -5 -1 -9 4 -9 6 0 11 -5 11 -10 0 -7 -8 -7 -23 1 -22 12
-22 12 -2 -8 11 -11 22 -17 25 -13 8 11 40 8 33 -3 -4 -6 0 -8 9 -5 8 4 15 1
15 -7 0 -7 -7 -11 -16 -8 -11 3 -10 0 3 -11 11 -9 24 -16 29 -16 6 0 2 -9 -9
-21 -10 -11 -14 -19 -9 -18 16 4 63 -22 70 -39 4 -11 2 -12 -8 -4 -10 9 -14 9
-14 -1 0 -7 11 -14 24 -15 16 -1 22 2 18 11 -4 6 0 3 9 -7 8 -10 13 -23 9 -29
-3 -5 4 -6 18 -2 21 7 22 6 10 -8 -7 -9 -18 -14 -24 -10 -6 3 -7 1 -3 -6 4 -6
11 -9 16 -6 5 3 16 -5 24 -17 9 -12 16 -17 16 -11 0 7 8 17 18 22 15 8 18 6
18 -14 0 -16 -5 -21 -15 -18 -13 4 -14 3 -2 -5 8 -6 21 -7 30 -4 14 5 14 3 3
-10 -11 -14 -10 -16 7 -11 12 3 18 10 14 17 -3 6 -2 7 3 3 5 -5 9 -12 9 -15 0
-4 4 -14 10 -22 7 -12 6 -13 -6 -3 -10 8 -19 9 -29 2 -12 -8 -11 -9 5 -7 11 2
19 -2 18 -8 -1 -7 6 -10 17 -7 11 3 21 0 21 -6 3 -26 4 -30 13 -38 5 -5 6 -3
2 5 -4 7 -1 12 9 12 9 0 13 5 10 10 -4 6 5 5 20 -2 14 -6 22 -14 17 -17 -5 -3
-11 -13 -14 -21 -7 -19 29 -25 50 -8 7 6 12 7 11 2 -5 -26 2 -36 21 -31 26 7
35 -9 18 -31 -12 -15 -11 -16 4 -4 11 9 18 10 23 2 3 -5 17 -10 30 -10 13 0
27 -5 31 -11 4 -8 9 -7 16 2 7 10 8 8 3 -6 -12 -37 -10 -39 32 -40 22 0 40 -2
38 -5 -8 -13 13 -31 41 -36 16 -3 30 -7 33 -10 2 -2 10 1 18 8 11 9 13 8 11
-3 -2 -10 6 -14 28 -14 25 0 30 -4 28 -21 -1 -12 4 -21 12 -21 8 0 14 4 14 9
0 4 -6 8 -12 8 -10 0 -10 2 0 9 14 9 62 -8 62 -22 0 -10 -23 -4 -33 8 -5 6 -7
4 -4 -5 2 -8 10 -14 16 -12 6 1 11 -3 11 -10 0 -6 3 -8 7 -5 3 4 18 -3 32 -15
14 -13 19 -15 12 -5 -8 10 -9 17 -3 17 6 0 13 -3 16 -8 8 -13 121 -8 118 5 -1
7 3 13 9 13 6 0 9 -7 5 -15 -3 -8 -1 -15 3 -15 5 0 18 -3 28 -7 16 -6 17 -5 3
13 -14 19 -14 19 7 1 20 -18 22 -18 32 0 6 10 11 13 11 6 0 -6 -5 -15 -10 -18
-8 -5 -7 -11 1 -21 6 -8 8 -14 4 -14 -4 0 -14 8 -21 18 -13 16 -14 16 -7 -3 6
-18 5 -18 -10 -6 -9 7 -17 9 -17 3 0 -5 7 -13 15 -16 9 -3 999 -6 2201 -6
1920 0 2185 2 2190 15 4 8 10 12 15 9 5 -3 6 -10 3 -16 -5 -7 -2 -8 5 -3 9 5
10 10 2 18 -6 6 -11 18 -11 26 1 14 3 13 14 -1 7 -10 17 -18 22 -18 4 0 3 5
-4 12 -15 15 -15 28 -1 28 5 0 7 -4 4 -10 -4 -6 5 -9 20 -8 18 2 24 7 20 18
-4 11 -1 10 9 -3 13 -17 46 -14 46 4 0 6 10 4 23 -2 l22 -12 -20 23 -20 23 28
-18 c27 -17 28 -17 42 1 8 10 12 26 10 34 -3 8 3 4 14 -10 16 -20 19 -21 18
-6 -1 11 5 20 16 22 10 1 28 11 40 21 22 18 22 18 5 -3 -21 -24 -23 -33 -5
-30 26 4 38 18 32 39 -5 16 -4 18 3 8 6 -8 12 -9 16 -3 8 13 46 12 46 -1 0 -4
5 -5 11 -1 8 4 7 9 -2 15 -7 4 -17 5 -21 3 -4 -3 -8 0 -8 5 0 12 27 10 48 -3
12 -7 12 -4 2 15 l-11 24 19 -21 c18 -22 19 -22 31 -2 7 12 18 17 28 14 14 -6
14 -3 -1 19 -19 28 -11 34 11 8 12 -15 14 -15 10 -2 -3 9 0 16 6 17 7 0 27 2
45 3 17 1 32 6 32 11 0 5 -4 7 -9 4 -4 -3 -17 2 -27 10 -19 15 -19 15 0 6 22
-11 66 4 66 22 0 6 5 4 10 -4 8 -13 10 -13 10 1 0 11 8 15 24 14 18 -2 23 1
19 11 -4 10 0 13 13 8 18 -5 18 -5 1 6 -9 6 -15 16 -11 21 4 6 11 5 21 -2 12
-11 14 -10 11 5 -4 22 32 32 44 13 5 -8 8 -6 8 6 0 22 17 22 24 0 3 -11 4 -7
3 7 -1 16 3 24 11 22 8 -1 11 2 7 8 -4 6 -15 4 -31 -6 -13 -9 -27 -14 -31 -10
-3 3 0 6 8 6 12 0 11 2 -1 11 -12 9 -12 10 3 5 11 -3 24 -3 30 1 19 12 49 14
42 4 -3 -5 -1 -12 4 -15 5 -4 8 2 6 11 -2 10 -4 21 -4 25 -1 4 -7 6 -13 4 -7
-1 -10 -1 -5 1 4 3 5 8 2 13 -3 4 4 6 15 3 11 -3 18 -9 15 -13 -3 -5 -2 -11 3
-14 4 -2 9 6 10 20 3 47 5 52 19 47 11 -4 11 -8 1 -22 -12 -14 -11 -15 5 -2
10 8 16 20 13 26 -2 7 0 18 6 26 8 11 9 10 4 -3 -3 -10 -1 -18 4 -18 6 0 10 5
10 10 0 6 6 9 13 8 7 -2 11 5 9 16 -3 17 -1 18 11 7 12 -9 17 -9 23 0 4 7 3 9
-3 6 -6 -4 -11 4 -10 18 0 14 4 25 9 25 5 0 7 -4 3 -9 -3 -5 0 -13 7 -17 7 -4
10 -4 6 1 -4 4 -3 16 2 26 6 9 7 19 2 22 -4 2 -2 2 5 1 7 -2 24 3 38 10 21 11
23 15 10 20 -22 8 -25 8 -23 -3 2 -5 0 -9 -4 -10 -10 -1 -11 1 -3 21 4 10 11
16 15 13 5 -3 11 -1 15 4 3 6 12 8 19 5 8 -3 17 0 22 7 4 7 3 10 -4 5 -5 -3
-9 0 -8 8 3 22 27 46 46 46 27 0 31 12 13 34 -17 20 -17 20 1 6 18 -14 19 -13
12 5 -6 16 -5 18 5 8 7 -7 17 -13 23 -13 5 0 -1 9 -14 20 -13 11 -19 20 -14
20 6 0 15 -5 22 -12 9 -9 12 -7 12 10 0 15 5 20 15 16 8 -4 12 -11 8 -17 -4
-6 -1 -7 6 -2 9 5 10 10 2 18 -13 13 -15 31 -3 23 5 -3 9 1 9 9 0 8 -4 12 -9
9 -4 -3 -8 0 -8 5 0 6 7 11 16 11 8 0 12 5 9 10 -4 6 -11 7 -17 4 -7 -4 -8 -2
-4 4 4 6 14 8 23 5 12 -5 14 -3 8 7 -6 10 -4 12 7 8 11 -5 15 0 13 15 -1 24
24 77 38 77 4 0 5 6 1 13 -6 9 -4 9 8 -1 13 -11 15 -8 15 25 -1 24 4 38 13 41
12 3 12 2 2 -6 -11 -7 -10 -11 1 -20 11 -9 13 -7 12 10 -1 12 -7 24 -13 26 -7
2 -9 8 -6 13 3 6 11 5 20 -2 8 -6 14 -7 14 -2 0 6 -10 15 -22 22 -21 10 -20
11 12 6 l35 -5 -25 16 -25 15 27 -4 c15 -2 25 0 22 4 -11 19 -12 49 -2 55 6 4
8 2 4 -4 -3 -6 -1 -14 5 -18 8 -4 9 -3 5 4 -4 7 -2 12 4 12 7 0 6 5 -2 14 -10
11 -16 11 -28 2 -13 -9 -13 -9 -2 6 8 9 19 15 27 12 7 -3 16 0 21 7 4 8 3 10
-4 5 -7 -4 -12 -1 -12 8 0 9 -4 16 -10 16 -5 0 -10 5 -10 12 0 6 9 3 20 -7 11
-10 21 -15 21 -12 1 4 2 11 3 17 0 5 9 19 20 31 13 16 14 21 3 16 -11 -4 -14
2 -13 23 0 16 4 26 9 23 4 -2 5 -8 2 -13 -3 -5 -1 -11 4 -14 12 -8 8 37 -4 46
-12 9 -16 50 -4 42 5 -3 9 0 9 6 0 6 4 8 10 5 7 -4 7 2 1 18 -6 14 -7 28 -3
33 4 4 -2 4 -13 0 -14 -5 -11 1 10 18 17 14 35 25 40 25 6 0 1 -8 -11 -17 -22
-19 -23 -47 -3 -66 9 -8 9 -6 1 10 -9 16 -7 26 6 45 19 27 25 112 8 102 -6 -4
-5 0 2 9 10 12 12 444 12 2149 -1 1174 -5 2140 -9 2148 -6 9 -11 10 -15 2 -4
-6 -1 -11 6 -11 9 0 9 -3 -2 -10 -13 -9 -13 -10 0 -10 13 0 13 -2 0 -9 -8 -6
-18 -7 -24 -4 -5 4 -7 0 -4 -9 4 -9 0 -15 -8 -15 -12 0 -12 4 0 22 11 17 12
25 3 35 -9 10 -9 11 1 6 17 -10 15 9 -2 23 -8 7 -13 20 -11 29 1 9 -2 25 -6
34 -6 11 -5 19 3 24 7 5 8 3 3 -7 -5 -8 -4 -10 0 -6 15 13 15 39 0 33 -8 -3
-17 0 -21 6 -4 7 -3 8 4 4 7 -4 12 -2 12 4 0 6 4 9 8 6 5 -3 9 1 9 9 0 8 -5
11 -10 8 -6 -4 -8 0 -4 10 4 11 1 17 -8 17 -8 0 -14 3 -14 8 1 4 1 16 0 27 -1
16 -3 17 -11 5 -6 -9 -5 -17 3 -22 7 -4 8 -8 3 -8 -5 0 -3 -6 3 -14 9 -11 8
-15 -4 -20 -10 -3 -13 -2 -10 5 4 5 -1 21 -10 36 -10 15 -12 22 -4 18 9 -6 11
-3 6 8 -3 10 -2 17 4 17 6 0 7 5 4 10 -5 8 -12 7 -23 -2 -15 -11 -15 -11 -5 3
10 12 10 18 0 29 -10 12 -9 12 6 1 14 -11 17 -11 17 1 0 8 -10 20 -22 27 -23
11 -23 11 2 6 14 -3 19 -2 13 1 -7 3 -13 12 -13 19 0 8 -5 17 -10 20 -6 4 -9
1 -8 -6 2 -6 -4 -14 -12 -16 -10 -3 -11 -2 -4 4 21 16 5 101 -17 88 -5 -4 -9
0 -9 7 0 9 -3 9 -10 -2 -8 -12 -10 -9 -8 10 2 18 -2 25 -14 24 -10 -1 -14 4
-11 12 3 10 9 11 17 5 7 -6 18 -5 29 4 17 12 17 13 -10 11 -15 -1 -33 -5 -40
-9 -8 -5 -11 -1 -8 13 2 11 -3 24 -13 30 -10 5 -12 10 -4 10 6 0 12 5 12 11 0
5 -5 7 -12 3 -7 -4 -8 -3 -4 5 4 6 11 9 16 6 5 -3 11 -2 14 3 3 5 -1 9 -9 10
-8 1 -22 3 -30 4 -18 2 -19 10 -3 26 10 10 8 12 -7 9 -11 -1 -27 -7 -35 -12
-9 -5 -8 0 4 13 21 24 32 29 20 10 -5 -7 -3 -8 5 -3 9 5 10 10 2 18 -7 7 -16
6 -28 -4 -16 -12 -16 -11 1 8 10 13 24 20 30 16 6 -4 5 1 -3 10 -7 9 -19 17
-25 16 -7 0 -6 -2 2 -6 6 -2 9 -9 6 -14 -9 -16 -34 10 -28 29 3 9 -1 6 -10 -8
l-15 -25 3 25 c1 14 6 31 10 38 5 8 2 10 -8 6 -11 -4 -14 0 -11 14 2 13 -2 19
-10 18 -23 -3 -30 -16 -10 -16 10 0 16 -3 12 -6 -3 -4 -13 -4 -22 0 -13 5 -14
10 -4 27 9 17 8 20 -3 16 -7 -2 -21 2 -30 11 -14 12 -15 19 -6 36 10 19 10 20
-6 7 -16 -13 -20 -11 -41 15 -18 23 -21 32 -12 43 10 11 8 13 -13 6 -20 -6
-23 -5 -12 6 6 7 12 18 12 23 0 6 -5 4 -10 -4 -7 -11 -10 -11 -10 -2 0 7 -4
11 -9 8 -5 -3 -12 1 -15 10 -4 11 -2 15 7 11 8 -3 14 1 14 8 0 8 -13 12 -37
11 -27 -1 -37 3 -36 14 1 10 -6 14 -19 12 l-20 -4 20 17 c18 15 18 16 1 11
-14 -5 -17 -2 -12 9 3 9 2 13 -3 10 -5 -3 -22 5 -37 18 -20 17 -23 24 -11 24
9 0 18 -6 21 -14 3 -7 10 -13 16 -13 14 0 -20 35 -34 36 -6 0 -15 -2 -21 -5
-18 -10 -35 -9 -29 1 3 5 -2 15 -12 22 -13 10 -14 15 -4 21 7 5 11 4 8 -1 -3
-5 3 -17 13 -26 14 -14 18 -14 23 -2 3 7 2 13 -3 11 -5 -1 -18 9 -30 23 -13
14 -19 19 -16 12 11 -22 -28 -10 -42 13 -7 11 -12 14 -13 8 0 -7 -5 -13 -10
-13 -7 0 -7 6 0 19 8 17 7 19 -15 16 -19 -2 -30 5 -42 26 -15 26 -18 26 -31
11 -7 -9 -11 -12 -8 -5 4 6 -3 14 -14 18 -11 3 -20 13 -20 21 0 13 -24 19 -57
15 -7 -1 -13 3 -13 9 0 6 4 9 9 5 5 -3 13 0 17 7 4 7 3 10 -1 5 -5 -4 -17 5
-28 20 -10 16 -17 20 -13 11 3 -10 1 -18 -4 -18 -10 0 -14 15 -10 35 1 6 -4 4
-11 -2 -7 -7 -21 -13 -31 -13 -10 0 -18 -5 -18 -12 0 -6 -3 -8 -7 -4 -4 4 3
16 17 27 17 13 19 17 6 13 -11 -4 -22 -1 -27 7 -6 10 -9 10 -9 2 0 -7 -5 -13
-11 -13 -5 0 -7 6 -3 13 4 6 4 9 -1 5 -4 -4 -14 -3 -21 3 -8 7 -14 6 -20 -2
-5 -8 -3 -10 7 -4 8 5 10 4 6 0 -10 -12 -39 -16 -32 -5 3 5 -5 14 -17 21 -13
7 -29 19 -36 28 -12 14 -13 14 -8 -1 3 -10 1 -18 -4 -18 -9 0 -14 15 -11 33 1
4 -7 3 -18 -3 -25 -13 -44 -5 -56 22 -6 12 -18 23 -28 24 -9 1 -15 -2 -11 -7
3 -5 10 -6 16 -3 7 4 8 2 4 -5 -4 -6 -12 -8 -18 -5 -6 4 -15 0 -20 -7 -6 -10
-7 -6 -2 11 3 14 3 22 -1 18 -5 -4 -14 0 -21 10 -12 16 -12 16 -11 -2 1 -13
-6 -20 -23 -22 -19 -3 -22 -2 -10 6 13 9 13 10 0 10 -9 0 -22 -6 -29 -12 -11
-10 -13 -10 -7 0 4 6 3 12 -3 12 -6 0 -8 8 -5 18 4 10 2 13 -3 7 -14 -17 -32
-15 -43 5 -10 19 -35 19 -2190 19 -2152 1 -2180 0 -2190 -19z m100 -1 c0 -5
-4 -7 -10 -4 -5 3 -11 1 -11 -4 -3 -26 -4 -30 -11 -37 -8 -8 -2 31 7 46 8 13
25 13 25 -1z m4260 4 c9 8 11 8 7 1 -7 -11 19 -29 36 -25 5 1 6 -3 3 -8 -4 -5
0 -11 6 -14 7 -3 3 -4 -9 -4 -12 1 -21 4 -20 7 1 3 -2 6 -7 7 -5 1 -13 7 -17
15 -7 11 -9 11 -9 0 0 -10 -4 -9 -16 2 -14 15 -17 14 -35 -6 l-20 -23 16 27
c13 22 21 26 34 18 12 -6 22 -5 31 3z m-4220 -24 c0 -4 -9 -7 -19 -6 -11 0
-18 4 -16 7 6 9 35 8 35 -1z m4371 -42 c-10 -9 -11 -8 -5 6 3 10 9 15 12 12 3
-3 0 -11 -7 -18z m-4656 -17 c3 -6 -1 -7 -9 -4 -18 7 -21 14 -7 14 6 0 13 -4
16 -10z m4967 -74 c9 5 8 2 -2 -10 -8 -11 -16 -14 -18 -7 -2 6 -7 9 -11 7 -4
-3 -8 1 -8 9 0 11 4 12 13 4 7 -6 19 -7 26 -3z m-5230 -14 c-6 -2 -15 -4 -19
-4 -5 -1 -14 -8 -21 -17 -10 -13 -12 -13 -10 -1 4 21 30 39 47 32 10 -4 11 -7
3 -10z m5308 -34 c0 -19 -16 -5 -17 14 -2 18 0 20 7 8 5 -8 10 -18 10 -22z
m23 -8 c-3 -12 -8 -19 -11 -16 -5 6 5 36 12 36 2 0 2 -9 -1 -20z m-5415 -8
c-9 -10 -13 -11 -19 0 -7 10 -9 10 -9 -1 0 -8 -3 -12 -6 -8 -10 10 4 23 25 23
15 0 17 -3 9 -14z m-48 -2 c0 -5 -2 -10 -4 -10 -3 0 -8 5 -11 10 -3 6 -1 10 4
10 6 0 11 -4 11 -10z m-45 -20 c3 -5 1 -10 -4 -10 -6 0 -11 5 -11 10 0 6 2 10
4 10 3 0 8 -4 11 -10z m5578 -20 c3 -11 1 -18 -4 -14 -5 3 -9 12 -9 20 0 20 7
17 13 -6z m-5901 -227 c-10 -4 -10 -8 0 -21 12 -15 11 -16 -5 -3 -13 11 -15
17 -6 28 7 7 15 11 18 7 3 -4 0 -9 -7 -11z m-47 -42 c-9 -8 -36 -10 -30 -2 2
4 11 8 20 8 8 0 13 -3 10 -6z m-218 -293 c-3 -8 -6 -5 -6 6 -1 11 2 17 5 13 3
-3 4 -12 1 -19z m-157 -234 c0 -8 -19 -13 -24 -6 -3 5 1 9 9 9 8 0 15 -2 15
-3z m7115 -62 c2 -12 -1 -25 -7 -28 -7 -4 -8 -2 -4 4 4 7 3 12 -2 12 -6 0 -13
7 -16 16 -3 8 -2 12 4 9 6 -3 10 -1 10 6 0 18 10 5 15 -19z m-7178 -76 c4 -4
1 -6 -7 -4 -8 2 -14 -5 -15 -16 0 -11 -7 -21 -15 -23 -11 -3 -12 -2 -3 4 7 5
11 18 9 30 -4 21 14 26 31 9z m-34 -131 c-3 -9 -8 -14 -10 -11 -3 3 -2 9 2 15
9 16 15 13 8 -4z m7367 -255 c0 -5 -5 -10 -11 -10 -5 0 -7 5 -4 10 3 6 8 10
11 10 2 0 4 -4 4 -10z m0 -45 c0 -8 -4 -15 -10 -15 -5 0 -7 7 -4 15 4 8 8 15
10 15 2 0 4 -7 4 -15z m-7440 -34 c0 -6 -4 -12 -8 -15 -5 -3 -9 1 -9 9 0 8 4
15 9 15 4 0 8 -4 8 -9z m-25 -60 c-3 -6 3 -14 12 -20 10 -6 13 -11 7 -11 -15
0 -36 25 -27 33 10 10 15 8 8 -2z m25 -4041 c0 -5 -5 -10 -11 -10 -5 0 -7 5
-4 10 3 6 8 10 11 10 2 0 4 -4 4 -10z m7438 -25 c-3 -3 -9 2 -12 12 -6 14 -5
15 5 6 7 -7 10 -15 7 -18z m-7458 -35 c0 -5 -2 -10 -4 -10 -3 0 -8 5 -11 10
-3 6 -1 10 4 10 6 0 11 -4 11 -10z m7451 -37 c13 -17 13 -17 -6 -3 -11 8 -22
16 -24 17 -2 2 0 3 6 3 6 0 17 -8 24 -17z m-3 -34 c-6 -4 -18 -5 -26 -1 -10 3
-13 1 -8 -6 4 -7 2 -12 -3 -12 -16 0 -13 20 4 26 8 4 12 10 9 16 -3 5 3 4 15
-3 13 -9 16 -16 9 -20z m-7375 -240 c-8 -8 -13 -7 -18 2 -5 8 -4 10 3 5 7 -4
12 -2 12 5 0 7 3 9 7 6 4 -4 2 -12 -4 -18z m7310 -4 c-12 -32 -23 -14 -14 23
1 2 5 1 11 -3 5 -3 7 -12 3 -20z m-7279 -90 c-4 -8 -8 -15 -10 -15 -2 0 -4 7
-4 15 0 8 4 15 10 15 5 0 7 -7 4 -15z m28 -50 c2 3 5 -2 5 -10 0 -18 -24 -28
-33 -13 -4 7 -3 8 4 4 18 -11 14 5 -5 28 -18 21 -18 21 3 3 11 -9 23 -15 26
-12z m105 -200 c0 -8 -4 -12 -9 -9 -5 3 -6 10 -3 15 9 13 12 11 12 -6z m6843
-225 c0 -5 -5 -10 -11 -10 -5 0 -7 5 -4 10 3 6 8 10 11 10 2 0 4 -4 4 -10z
m-60 -60 c0 -5 -5 -10 -11 -10 -5 0 -7 5 -4 10 3 6 8 10 11 10 2 0 4 -4 4 -10z
m-6513 -106 c0 -7 -6 -10 -14 -7 -7 3 -13 8 -13 12 0 4 6 8 13 8 8 0 14 -6 14
-13z m113 -126 c0 -6 -6 -5 -15 2 -8 7 -15 14 -15 16 0 2 7 1 15 -2 8 -4 15
-11 15 -16z m118 -83 c-3 -3 -9 2 -12 12 -6 14 -5 15 5 6 7 -7 10 -15 7 -18z
m5879 -70 c0 -8 -4 -12 -9 -9 -4 3 -8 9 -8 15 0 5 4 9 8 9 5 0 9 -7 9 -15z
m-62 -34 c-9 -8 -36 -10 -30 -2 2 4 11 8 20 8 8 0 13 -3 10 -6z m-5620 -11
c-3 -5 -1 -10 6 -10 7 0 10 -3 6 -6 -9 -9 -28 6 -22 17 4 5 8 9 11 9 3 0 2 -4
-1 -10z m5472 -87 c-11 -11 -17 -13 -17 -5 0 7 5 12 11 12 6 0 8 7 4 18 -5 14
-4 15 6 4 11 -10 10 -15 -4 -29z m-5380 14 c0 -8 -6 -14 -14 -14 -9 0 -10 4
-2 14 6 7 12 13 14 13 1 0 2 -6 2 -13z m27 -3 c3 -8 2 -12 -4 -9 -6 3 -10 10
-10 16 0 14 7 11 14 -7z m64 -36 c8 -8 15 -8 24 0 11 9 14 6 15 -11 1 -12 -1
-17 -5 -12 -4 6 -17 10 -29 9 -12 -1 -24 5 -27 12 -7 17 6 18 22 2z m5001 -55
c-3 -21 2 -34 11 -28 6 4 7 11 4 17 -4 7 -2 8 5 4 9 -6 9 -11 0 -23 -11 -13
-14 -13 -26 3 -7 9 -10 21 -7 25 6 11 14 12 13 2z m-4779 -43 c0 -5 -2 -10 -4
-10 -3 0 -8 5 -11 10 -3 6 -1 10 4 10 6 0 11 -4 11 -10z m40 -12 c0 -6 -6 -5
-15 2 -8 7 -15 14 -15 16 0 2 7 1 15 -2 8 -4 15 -11 15 -16z m55 -6 c-3 -3
-11 0 -18 7 -9 10 -8 11 6 5 10 -3 15 -9 12 -12z m4625 14 c0 -3 -4 -8 -10
-11 -5 -3 -10 -1 -10 4 0 6 5 11 10 11 6 0 10 -2 10 -4z m-160 -10 c0 -3 -4
-8 -10 -11 -5 -3 -10 -1 -10 4 0 6 5 11 10 11 6 0 10 -2 10 -4z m25 -27 c-6
-30 -10 -32 -33 -20 -13 7 -22 7 -24 1 -2 -6 -8 -2 -15 9 -10 15 -9 19 2 17 8
-1 18 -5 21 -9 4 -4 17 -7 28 -6 13 0 16 3 7 6 -11 5 -11 7 0 14 19 12 18 12
14 -12z m-4325 -4 c-7 -9 -15 -13 -19 -10 -3 3 1 10 9 15 21 14 24 12 10 -5z
m4235 -16 c-4 -5 -14 -8 -23 -8 -15 1 -15 2 1 6 9 2 14 9 11 15 -4 7 -2 8 5 4
6 -4 9 -12 6 -17z m-4195 3 c0 -4 -10 -9 -22 -9 -18 -2 -20 0 -8 7 18 12 30
13 30 2z m4100 -2 c0 -5 -5 -10 -11 -10 -5 0 -7 5 -4 10 3 6 8 10 11 10 2 0 4
-4 4 -10z"/>
<path d="M6166 7408 c3 -5 10 -6 15 -3 13 9 11 12 -6 12 -8 0 -12 -4 -9 -9z"/>
<path d="M6269 7393 c-13 -16 -12 -17 4 -4 9 7 17 15 17 17 0 8 -8 3 -21 -13z"/>
<path d="M6280 7376 c0 -2 7 -9 15 -16 9 -7 15 -8 15 -2 0 5 -7 12 -15 16 -8
3 -15 4 -15 2z"/>
<path d="M1010 7299 c0 -5 5 -7 10 -4 6 3 10 8 10 11 0 2 -4 4 -10 4 -5 0 -10
-5 -10 -11z"/>
<path d="M6635 7200 c6 -30 16 -40 12 -12 -2 12 -6 24 -10 28 -3 4 -4 -4 -2
-16z"/>
<path d="M715 7120 c3 -5 8 -10 11 -10 2 0 4 5 4 10 0 6 -5 10 -11 10 -5 0 -7
-4 -4 -10z"/>
<path d="M6907 6973 c3 -7 8 -13 12 -13 4 0 8 6 8 13 0 8 -6 14 -13 14 -7 0
-10 -6 -7 -14z"/>
<path d="M511 6894 c0 -11 3 -14 6 -6 3 7 2 16 -1 19 -3 4 -6 -2 -5 -13z"/>
<path d="M7017 6835 c22 -30 25 -30 41 -5 7 11 8 20 3 20 -5 0 -11 -6 -13 -12
-3 -9 -9 -8 -22 5 -25 25 -30 21 -9 -8z"/>
<path d="M413 6783 c-3 -7 -10 -10 -16 -6 -6 4 -7 1 -2 -7 6 -10 11 -10 20 3
7 9 14 14 17 11 4 -3 8 -1 12 4 3 5 -2 9 -10 9 -9 0 -18 -6 -21 -14z"/>
<path d="M7066 6791 c-3 -5 2 -15 11 -22 14 -12 16 -12 8 0 -6 11 -4 13 8 8
23 -9 21 0 -2 13 -11 6 -22 6 -25 1z"/>
<path d="M358 6733 c7 -3 16 -2 19 1 4 3 -2 6 -13 5 -11 0 -14 -3 -6 -6z"/>
<path d="M7261 6516 c-8 -10 -9 -16 -1 -21 6 -3 8 -11 5 -16 -3 -5 1 -6 11 -2
15 5 15 7 0 15 -9 5 -14 14 -11 19 4 5 11 6 17 3 7 -4 8 -2 4 4 -9 15 -11 15
-25 -2z"/>
<path d="M7307 6423 c3 -7 8 -13 12 -13 4 0 8 6 8 13 0 8 -6 14 -13 14 -7 0
-10 -6 -7 -14z"/>
<path d="M7367 6339 c7 -7 15 -10 18 -7 3 3 -2 9 -12 12 -14 6 -15 5 -6 -5z"/>
<path d="M7445 6040 c-3 -5 -1 -10 4 -10 6 0 11 5 11 10 0 6 -2 10 -4 10 -3 0
-8 -4 -11 -10z"/>
<path d="M7444 6003 c3 -19 26 -41 26 -25 0 7 -5 12 -11 12 -8 0 -8 4 0 13 8
10 7 14 -3 14 -8 0 -13 -6 -12 -14z"/>
<path d="M7434 1458 c-11 -17 6 -22 22 -7 13 14 13 16 -1 16 -9 0 -18 -4 -21
-9z"/>
<path d="M7282 1023 c-7 -2 -17 -13 -22 -24 -8 -15 -7 -17 5 -13 8 3 12 10 9
15 -5 8 9 13 29 10 4 0 7 4 7 9 0 11 -7 12 -28 3z"/>
<path d="M295 870 c-4 -6 -3 -10 2 -9 20 3 27 -2 13 -11 -9 -6 -10 -10 -3 -10
19 0 24 17 9 29 -10 9 -16 9 -21 1z"/>
<path d="M360 770 c-14 -9 -7 -12 16 -9 4 0 10 -5 15 -12 4 -8 10 -11 14 -8
11 12 -30 38 -45 29z"/>
<path d="M7084 736 c-8 -9 -7 -15 3 -25 12 -11 14 -10 11 5 -2 10 2 19 9 19
19 0 24 11 5 12 -9 1 -22 -4 -28 -11z"/>
<path d="M443 693 c4 -6 2 -13 -4 -15 -7 -2 -6 -8 3 -16 12 -9 14 -8 13 8 -1
11 -5 23 -10 27 -4 5 -5 3 -2 -4z"/>
<path d="M7036 682 c-3 -5 1 -9 9 -9 8 0 12 4 9 9 -3 4 -7 8 -9 8 -2 0 -6 -4
-9 -8z"/>
<path d="M470 639 c0 -5 5 -7 10 -4 6 3 10 8 10 11 0 2 -4 4 -10 4 -5 0 -10
-5 -10 -11z"/>
<path d="M7015 620 c-3 -5 -1 -10 4 -10 6 0 11 5 11 10 0 6 -2 10 -4 10 -3 0
-8 -4 -11 -10z"/>
<path d="M6706 368 c3 -4 9 -8 15 -8 5 0 9 4 9 8 0 5 -7 9 -15 9 -8 0 -12 -4
-9 -9z"/>
<path d="M810 350 c-9 -6 -10 -10 -3 -10 6 0 15 5 18 10 8 12 4 12 -15 0z"/>
<path d="M980 229 c-12 -8 -10 -9 9 -4 17 5 22 4 16 -5 -5 -9 -4 -11 4 -6 6 4
9 12 6 17 -8 12 -16 11 -35 -2z"/>
<path d="M6324 149 c-3 -6 -2 -15 3 -20 5 -5 9 -1 9 11 0 23 -2 24 -12 9z"/>
<path d="M1180 126 c0 -2 7 -7 16 -10 8 -3 12 -2 9 4 -6 10 -25 14 -25 6z"/>
<path d="M1223 115 c0 -7 6 -11 14 -8 7 3 13 6 13 8 0 2 -6 5 -13 8 -8 3 -14
-1 -14 -8z"/>
<path d="M6226 108 c3 -4 9 -8 15 -8 5 0 9 4 9 8 0 5 -7 9 -15 9 -8 0 -12 -4
-9 -9z"/>
<path d="M1506 42 c-3 -4 4 -9 15 -9 23 -2 25 3 4 10 -8 4 -16 3 -19 -1z"/>
</g>
</svg>
