<?xml version="1.0" standalone="no"?>
<!DOCTYPE svg PUBLIC "-//W3C//DTD SVG 20010904//EN"
 "http://www.w3.org/TR/2001/REC-SVG-20010904/DTD/svg10.dtd">
<svg version="1.0" xmlns="http://www.w3.org/2000/svg"
 width="1140.000000pt" height="1140.000000pt" viewBox="0 0 1140.000000 1140.000000"
 preserveAspectRatio="xMidYMid meet">
<metadata>
Created by potrace 1.14, written by Peter Selinger 2001-2017
</metadata>
<g transform="translate(0.000000,1140.000000) scale(0.100000,-0.100000)"
fill="#000000" stroke="none">
<path d="M1713 11386 c-6 -7 -38 -17 -70 -20 -108 -13 -317 -76 -440 -133 -40
-18 -75 -33 -78 -33 -9 0 -215 -120 -245 -142 -138 -103 -202 -158 -305 -262
-66 -67 -128 -132 -137 -146 -10 -14 -38 -52 -63 -85 -25 -33 -48 -67 -52 -75
-3 -8 -18 -33 -33 -55 -15 -22 -53 -94 -84 -160 -32 -66 -64 -133 -72 -148 -8
-16 -14 -34 -14 -40 0 -7 -6 -24 -14 -39 -8 -15 -20 -53 -26 -85 -6 -32 -18
-78 -26 -103 -8 -25 -16 -71 -20 -103 -3 -31 -12 -63 -20 -71 -21 -21 -21
-7950 0 -7971 7 -8 17 -40 20 -72 13 -108 76 -317 133 -440 18 -40 33 -75 33
-78 0 -9 120 -215 142 -245 103 -138 158 -202 262 -305 67 -66 132 -128 146
-137 14 -10 52 -38 85 -63 33 -25 67 -48 75 -52 8 -3 33 -18 55 -33 22 -15 94
-53 160 -84 66 -32 133 -64 148 -72 16 -8 34 -14 40 -14 7 0 24 -6 39 -14 15
-8 53 -20 85 -26 32 -6 78 -18 103 -26 25 -8 71 -16 103 -20 31 -3 63 -12 71
-20 21 -21 7950 -21 7971 0 8 7 40 17 72 20 108 13 317 76 440 133 40 18 75
33 78 33 9 0 215 120 245 142 138 103 202 158 305 262 66 67 128 132 137 146
10 14 38 52 63 85 25 33 48 67 52 75 3 8 18 33 33 55 15 22 53 94 84 160 32
66 64 133 72 148 8 16 14 34 14 40 0 7 7 25 15 40 8 15 19 56 26 90 7 34 16
67 21 73 4 6 13 47 18 90 12 91 18 114 31 114 5 0 9 1523 9 3976 0 3365 -2
3978 -14 3989 -7 8 -17 40 -20 72 -13 108 -76 317 -133 440 -18 40 -33 75 -33
78 0 9 -120 215 -142 245 -103 138 -158 202 -262 305 -67 66 -132 128 -146
137 -14 10 -52 38 -85 63 -33 25 -67 48 -75 52 -8 3 -33 18 -55 33 -22 15 -94
53 -160 84 -66 32 -133 64 -148 72 -16 8 -34 14 -40 14 -7 0 -24 6 -39 14 -15
8 -53 20 -85 26 -32 6 -78 18 -103 26 -25 8 -71 16 -103 20 -31 3 -63 12 -71
20 -21 20 -7955 21 -7973 0z m1997 -3571 c198 -19 361 -61 509 -132 228 -110
420 -297 524 -510 46 -94 71 -173 97 -308 19 -94 22 -131 17 -270 -6 -188 -23
-275 -78 -393 -90 -195 -229 -328 -461 -440 -48 -23 -92 -42 -98 -42 -23 0
-100 -43 -100 -56 0 -15 21 -21 90 -27 123 -11 344 -125 470 -244 254 -239
373 -545 357 -919 -24 -553 -319 -911 -892 -1083 -39 -12 -80 -21 -92 -21 -12
0 -43 -4 -70 -9 -158 -31 -209 -33 -1110 -37 -595 -3 -930 -1 -947 6 l-26 10
0 2220 c0 1362 4 2230 10 2245 l10 25 822 0 c629 -1 857 -4 968 -15z m2768
-980 c1 -544 4 -996 7 -1002 3 -10 253 -13 1200 -13 l1195 0 1 738 c1 405 4
856 8 1002 l6 265 265 0 265 0 3 -2243 c2 -1789 0 -2243 -10 -2246 -30 -10
-504 -15 -518 -6 -13 8 -15 130 -15 999 0 681 -3 993 -11 1001 -7 7 -375 9
-1200 8 l-1189 -3 -3 -995 c-1 -547 -5 -997 -10 -1002 -5 -5 -402 -12 -514 -9
-17 1 -18 115 -18 2244 0 1234 3 2247 7 2250 4 4 124 6 267 5 l261 -3 3 -990z"/>
<path d="M2453 7338 c-10 -16 -4 -1470 7 -1481 4 -5 268 -7 586 -4 500 3 589
6 651 20 243 57 429 189 551 390 74 122 111 302 92 450 -21 175 -78 295 -195
412 -133 134 -282 194 -538 215 -192 15 -1144 14 -1154 -2z"/>
<path d="M2448 5358 c-6 -16 2 -1528 7 -1545 3 -9 156 -11 642 -8 600 3 645 4
753 24 265 49 410 128 534 289 87 114 124 217 133 368 7 119 -6 202 -48 320
-58 159 -179 310 -324 405 -85 55 -140 81 -259 122 l-91 32 -671 3 c-541 2
-673 1 -676 -10z"/>
</g>
</svg>
